{"glyphs":{":":{"x_min":0,"x_max":337,"ha":337,"o":"m 117 124 l 220 124 l 220 0 l 117 0 z m 117 517 l 220 517 l 220 393 l 117 393 z"},"$":{"x_min":0,"x_max":636,"ha":636,"o":"m 338 -147 l 289 -147 l 289 0 q 237 1 186 12 q 135 23 83 45 l 83 133 q 133 102 184 86 q 235 70 289 69 l 289 292 q 181 310 132 352 q 83 394 83 467 q 83 546 136 592 q 189 638 289 645 l 289 760 l 338 760 l 338 646 q 383 645 426 637 q 468 629 509 616 l 509 531 q 468 551 426 562 q 383 574 338 576 l 338 367 q 449 350 501 306 q 553 262 553 186 q 553 104 498 56 q 442 8 338 1 z m 289 376 l 289 576 q 232 570 203 544 q 173 518 173 475 q 173 433 200 410 q 228 386 289 376 z m 338 282 l 338 71 q 400 79 431 106 q 463 133 463 177 q 463 220 433 245 q 403 271 338 282 z"},"?":{"x_min":0,"x_max":531,"ha":531,"o":"m 191 124 l 290 124 l 290 0 l 191 0 z m 287 196 l 194 196 l 194 271 q 194 320 208 352 q 221 384 265 426 l 309 469 q 337 495 349 518 q 362 541 362 565 q 362 608 330 635 q 298 662 245 662 q 207 662 163 645 q 119 628 72 595 l 72 687 q 118 715 165 729 q 212 742 262 742 q 352 742 406 695 q 461 647 461 570 q 461 533 443 499 q 426 466 382 424 l 339 382 q 316 359 306 346 q 297 333 293 321 q 290 311 289 296 q 287 281 287 256 z"},"<":{"x_min":0,"x_max":838,"ha":838,"o":"m 732 492 l 228 313 l 732 135 l 732 46 l 106 273 l 106 354 l 732 581 z"},"'":{"x_min":0,"x_max":275,"ha":275,"o":"m 179 729 l 179 458 l 96 458 l 96 729 z"},"=":{"x_min":0,"x_max":838,"ha":838,"o":"m 106 454 l 732 454 l 732 372 l 106 372 z m 106 255 l 732 255 l 732 172 l 106 172 z"},"a":{"x_min":0,"x_max":613,"ha":613,"o":"m 343 275 q 234 275 192 250 q 150 225 150 165 q 150 117 181 89 q 213 61 267 61 q 342 61 387 114 q 432 167 432 255 l 432 275 z m 522 312 l 522 0 l 432 0 l 432 83 q 401 33 355 10 q 310 -14 243 -14 q 159 -14 110 33 q 60 80 60 159 q 60 251 122 298 q 184 345 306 345 l 432 345 l 432 354 q 432 416 391 450 q 351 484 277 484 q 230 484 186 473 q 141 461 100 439 l 100 522 q 149 541 196 551 q 242 560 286 560 q 405 560 463 499 q 522 437 522 312 z"},"L":{"x_min":0,"x_max":557,"ha":557,"o":"m 98 729 l 197 729 l 197 83 l 552 83 l 552 0 l 98 0 z"},"3":{"x_min":0,"x_max":636,"ha":636,"o":"m 406 393 q 477 378 516 330 q 556 282 556 212 q 556 104 482 45 q 408 -14 271 -14 q 225 -14 177 -5 q 128 4 76 22 l 76 117 q 117 93 166 81 q 215 69 268 69 q 361 69 409 105 q 458 142 458 212 q 458 276 413 313 q 368 349 287 349 l 202 349 l 202 430 l 291 430 q 364 430 402 459 q 441 488 441 543 q 441 599 401 629 q 361 659 287 659 q 247 659 200 650 q 154 642 98 623 l 98 711 q 154 727 203 734 q 252 742 296 742 q 408 742 474 691 q 539 640 539 553 q 539 493 504 451 q 470 409 406 393 z"},";":{"x_min":0,"x_max":337,"ha":337,"o":"m 117 517 l 220 517 l 220 393 l 117 393 z m 117 124 l 220 124 l 220 40 l 140 -116 l 77 -116 l 117 40 z"},"J":{"x_min":0,"x_max":295,"ha":295,"o":"m 98 729 l 197 729 l 197 51 q 197 -81 147 -141 q 97 -200 -14 -200 l -52 -200 l -52 -117 l -21 -117 q 44 -117 71 -81 q 98 -44 98 51 z"},"V":{"x_min":0,"x_max":684,"ha":684,"o":"m 286 0 l 8 729 l 111 729 l 342 115 l 573 729 l 676 729 l 398 0 z"},"\"":{"x_min":0,"x_max":460,"ha":460,"o":"m 179 729 l 179 458 l 96 458 l 96 729 z m 364 729 l 364 458 l 281 458 l 281 729 z"},"7":{"x_min":0,"x_max":636,"ha":636,"o":"m 82 729 l 551 729 l 551 687 l 286 0 l 183 0 l 432 646 l 82 646 z"},"S":{"x_min":0,"x_max":635,"ha":635,"o":"m 535 705 l 535 609 q 479 636 429 649 q 379 662 333 662 q 252 662 209 631 q 165 600 165 542 q 165 494 194 469 q 223 444 304 429 l 364 417 q 474 396 527 343 q 579 290 579 201 q 579 95 508 41 q 437 -14 300 -14 q 248 -14 190 -2 q 131 9 69 32 l 69 134 q 129 100 187 83 q 244 66 300 66 q 384 66 430 99 q 476 132 476 194 q 476 248 443 278 q 410 308 335 323 l 275 335 q 165 357 115 404 q 66 451 66 534 q 66 631 134 687 q 202 742 322 742 q 373 742 426 733 q 479 724 535 705 z"},"}":{"x_min":0,"x_max":636,"ha":636,"o":"m 125 -93 l 159 -93 q 228 -93 248 -72 q 269 -51 269 19 l 269 140 q 269 216 291 251 q 313 286 367 299 q 313 311 291 346 q 269 380 269 457 l 269 578 q 269 647 248 669 q 228 690 159 690 l 125 690 l 125 760 l 156 760 q 277 760 318 724 q 359 688 359 580 l 359 463 q 359 390 385 362 q 412 334 481 334 l 511 334 l 511 264 l 481 264 q 412 264 385 236 q 359 208 359 134 l 359 17 q 359 -91 318 -127 q 277 -163 156 -163 l 125 -163 z"},"Z":{"x_min":0,"x_max":685,"ha":685,"o":"m 56 729 l 629 729 l 629 654 l 168 83 l 640 83 l 640 0 l 45 0 l 45 75 l 506 646 l 56 646 z"},"x":{"x_min":0,"x_max":592,"ha":592,"o":"m 549 547 l 351 281 l 559 0 l 453 0 l 294 215 l 135 0 l 29 0 l 241 286 l 47 547 l 153 547 l 298 352 l 443 547 z"},")":{"x_min":0,"x_max":390,"ha":390,"o":"m 80 759 l 158 759 q 231 644 268 533 q 304 423 304 314 q 304 205 268 94 q 231 -17 158 -132 l 80 -132 q 145 -20 177 91 q 209 201 209 314 q 209 427 177 537 q 145 646 80 759 z"},"&":{"x_min":0,"x_max":780,"ha":780,"o":"m 243 392 q 199 353 178 313 q 157 274 157 231 q 157 160 209 112 q 261 65 339 65 q 385 65 426 80 q 466 96 502 127 z m 312 447 l 560 193 q 589 236 605 286 q 621 335 624 391 l 715 391 q 709 327 684 264 q 658 201 613 139 l 749 0 l 626 0 l 556 72 q 505 28 450 7 q 394 -14 330 -14 q 212 -14 138 53 q 63 120 63 225 q 63 288 96 343 q 128 397 194 446 q 170 477 158 507 q 146 538 146 567 q 146 646 200 694 q 254 742 344 742 q 385 742 425 733 q 465 725 507 707 l 507 618 q 464 641 426 653 q 387 665 354 665 q 303 665 271 638 q 239 611 239 568 q 239 543 253 518 q 268 493 312 447 z"},"_":{"x_min":0,"x_max":500,"ha":500,"o":"m 510 -166 l 510 -236 l -10 -236 l -10 -166 z"},"v":{"x_min":0,"x_max":592,"ha":592,"o":"m 30 547 l 125 547 l 296 88 l 467 547 l 562 547 l 357 0 l 235 0 z"},"O":{"x_min":0,"x_max":787,"ha":787,"o":"m 394 662 q 287 662 223 582 q 160 502 160 364 q 160 226 223 146 q 287 66 394 66 q 501 66 564 146 q 627 226 627 364 q 627 502 564 582 q 501 662 394 662 z m 394 742 q 547 742 639 639 q 731 537 731 364 q 731 191 639 89 q 547 -14 394 -14 q 240 -14 148 88 q 56 191 56 364 q 56 537 148 639 q 240 742 394 742 z"},"(":{"x_min":0,"x_max":390,"ha":390,"o":"m 310 759 q 245 646 213 537 q 181 427 181 314 q 181 201 213 91 q 245 -20 310 -132 l 232 -132 q 159 -17 122 94 q 86 205 86 314 q 86 423 122 533 q 158 644 232 759 z"},"C":{"x_min":0,"x_max":698,"ha":698,"o":"m 644 673 l 644 569 q 594 615 538 638 q 481 661 418 661 q 293 661 227 585 q 160 508 160 364 q 160 220 227 143 q 293 67 418 67 q 481 67 538 90 q 594 113 644 159 l 644 56 q 592 21 534 3 q 477 -14 412 -14 q 247 -14 151 87 q 56 188 56 364 q 56 540 151 641 q 247 742 412 742 q 478 742 535 725 q 593 708 644 673 z"},"W":{"x_min":0,"x_max":989,"ha":989,"o":"m 33 729 l 133 729 l 286 113 l 439 729 l 550 729 l 703 113 l 856 729 l 956 729 l 773 0 l 649 0 l 495 633 l 340 0 l 216 0 z"},"A":{"x_min":0,"x_max":684,"ha":684,"o":"m 342 632 l 208 269 l 476 269 z m 286 729 l 398 729 l 676 0 l 573 0 l 507 187 l 178 187 l 112 0 l 8 0 z"},"f":{"x_min":0,"x_max":352,"ha":352,"o":"m 371 760 l 371 685 l 285 685 q 237 685 218 666 q 199 646 199 595 l 199 547 l 347 547 l 347 477 l 199 477 l 199 0 l 109 0 l 109 477 l 23 477 l 23 547 l 109 547 l 109 585 q 109 676 151 718 q 194 760 286 760 z"},"Q":{"x_min":0,"x_max":787,"ha":787,"o":"m 394 662 q 287 662 223 582 q 160 502 160 364 q 160 226 223 146 q 287 66 394 66 q 501 66 564 146 q 627 226 627 364 q 627 502 564 582 q 501 662 394 662 z m 532 13 l 662 -129 l 543 -129 l 435 -12 q 419 -13 410 -14 q 402 -14 394 -14 q 240 -14 148 89 q 56 191 56 364 q 56 537 148 639 q 240 742 394 742 q 547 742 639 639 q 731 537 731 364 q 731 237 680 146 q 629 56 532 13 z"},"w":{"x_min":0,"x_max":818,"ha":818,"o":"m 42 547 l 132 547 l 244 120 l 356 547 l 462 547 l 574 120 l 686 547 l 776 547 l 633 0 l 527 0 l 409 448 l 291 0 l 185 0 z"},"-":{"x_min":0,"x_max":361,"ha":361,"o":"m 49 314 l 312 314 l 312 234 l 49 234 z"},"E":{"x_min":0,"x_max":632,"ha":632,"o":"m 98 729 l 559 729 l 559 646 l 197 646 l 197 430 l 544 430 l 544 347 l 197 347 l 197 83 l 568 83 l 568 0 l 98 0 z"},"s":{"x_min":0,"x_max":521,"ha":521,"o":"m 443 531 l 443 446 q 405 465 364 475 q 323 485 279 485 q 212 485 178 464 q 145 444 145 403 q 145 372 169 354 q 193 336 265 320 l 296 313 q 392 292 432 255 q 472 218 472 151 q 472 75 412 30 q 352 -14 246 -14 q 202 -14 155 -6 q 107 3 54 20 l 54 113 q 104 87 152 74 q 201 61 248 61 q 312 61 346 83 q 380 104 380 144 q 380 181 355 200 q 331 220 247 238 l 216 245 q 132 263 95 299 q 58 335 58 399 q 58 476 113 518 q 167 560 268 560 q 318 560 362 553 q 406 545 443 531 z"},">":{"x_min":0,"x_max":838,"ha":838,"o":"m 106 492 l 106 581 l 732 354 l 732 273 l 106 46 l 106 135 l 609 313 z"},"l":{"x_min":0,"x_max":278,"ha":278,"o":"m 94 760 l 184 760 l 184 0 l 94 0 z"},"8":{"x_min":0,"x_max":636,"ha":636,"o":"m 318 346 q 248 346 207 309 q 167 271 167 205 q 167 139 207 102 q 248 64 318 64 q 388 64 429 102 q 469 140 469 205 q 469 271 429 309 q 389 346 318 346 z m 219 388 q 156 404 120 447 q 85 491 85 553 q 85 641 147 691 q 209 742 318 742 q 427 742 489 691 q 551 641 551 553 q 551 491 515 447 q 480 404 417 388 q 488 372 528 323 q 568 275 568 205 q 568 99 503 42 q 438 -14 318 -14 q 197 -14 133 42 q 68 99 68 205 q 68 275 108 323 q 148 372 219 388 z m 183 544 q 183 487 219 456 q 254 424 318 424 q 381 424 417 456 q 453 487 453 544 q 453 601 417 632 q 381 664 318 664 q 254 664 219 632 q 183 601 183 544 z"},"\\":{"x_min":0,"x_max":337,"ha":337,"o":"m 83 729 l 337 -93 l 254 -93 l 0 729 z"},"e":{"x_min":0,"x_max":615,"ha":615,"o":"m 562 296 l 562 252 l 149 252 q 155 159 205 111 q 255 62 344 62 q 396 62 445 75 q 493 87 541 113 l 541 28 q 493 7 442 -3 q 391 -14 339 -14 q 208 -14 132 62 q 55 138 55 268 q 55 402 128 481 q 200 560 323 560 q 434 560 498 489 q 562 418 562 296 z m 472 322 q 471 396 431 440 q 391 484 324 484 q 249 484 204 441 q 159 399 152 322 z"},"b":{"x_min":0,"x_max":635,"ha":635,"o":"m 487 273 q 487 372 446 428 q 405 485 334 485 q 263 485 222 428 q 181 372 181 273 q 181 174 222 117 q 263 61 334 61 q 405 61 446 117 q 487 174 487 273 z m 181 464 q 209 513 253 536 q 296 560 356 560 q 456 560 518 481 q 580 402 580 273 q 580 144 518 65 q 456 -14 356 -14 q 296 -14 253 10 q 209 33 181 82 l 181 0 l 91 0 l 91 760 l 181 760 z"},"%":{"x_min":0,"x_max":950,"ha":950,"o":"m 727 321 q 685 321 660 285 q 636 249 636 184 q 636 121 660 84 q 685 48 727 48 q 769 48 793 84 q 817 121 817 184 q 817 248 793 284 q 769 321 727 321 z m 727 383 q 804 383 850 329 q 895 275 895 184 q 895 93 849 39 q 804 -14 727 -14 q 649 -14 604 39 q 558 93 558 184 q 558 276 604 329 q 649 383 727 383 z m 223 680 q 181 680 157 644 q 133 607 133 544 q 133 479 157 443 q 181 407 223 407 q 266 407 290 443 q 314 479 314 544 q 314 607 290 644 q 265 680 223 680 z m 664 742 l 742 742 l 286 -14 l 208 -14 z m 223 742 q 300 742 346 689 q 392 635 392 544 q 392 452 346 398 q 301 345 223 345 q 146 345 100 399 q 55 452 55 544 q 55 635 101 688 q 146 742 223 742 z"},"m":{"x_min":0,"x_max":974,"ha":974,"o":"m 520 442 q 554 502 601 531 q 647 560 711 560 q 796 560 843 500 q 889 440 889 330 l 889 0 l 799 0 l 799 327 q 799 406 771 444 q 743 482 686 482 q 616 482 576 436 q 535 389 535 309 l 535 0 l 445 0 l 445 327 q 445 406 417 444 q 389 482 331 482 q 262 482 222 435 q 181 389 181 309 l 181 0 l 91 0 l 91 547 l 181 547 l 181 462 q 212 512 255 536 q 298 560 357 560 q 417 560 458 530 q 500 500 520 442 z"},"#":{"x_min":0,"x_max":838,"ha":838,"o":"m 511 440 l 369 440 l 328 277 l 471 277 z m 438 718 l 387 515 l 530 515 l 581 718 l 659 718 l 609 515 l 761 515 l 761 440 l 590 440 l 550 277 l 705 277 l 705 202 l 531 202 l 480 0 l 402 0 l 452 202 l 309 202 l 259 0 l 180 0 l 231 202 l 77 202 l 77 277 l 249 277 l 290 440 l 133 440 l 133 515 l 309 515 l 359 718 z"},",":{"x_min":0,"x_max":318,"ha":318,"o":"m 117 124 l 220 124 l 220 40 l 140 -116 l 77 -116 l 117 40 z"},"n":{"x_min":0,"x_max":634,"ha":634,"o":"m 549 330 l 549 0 l 459 0 l 459 327 q 459 405 429 443 q 398 482 338 482 q 265 482 223 436 q 181 389 181 309 l 181 0 l 91 0 l 91 547 l 181 547 l 181 462 q 213 511 257 536 q 301 560 358 560 q 452 560 500 502 q 549 443 549 330 z"},"h":{"x_min":0,"x_max":634,"ha":634,"o":"m 549 330 l 549 0 l 459 0 l 459 327 q 459 405 429 443 q 398 482 338 482 q 265 482 223 436 q 181 389 181 309 l 181 0 l 91 0 l 91 760 l 181 760 l 181 462 q 213 511 257 536 q 301 560 358 560 q 452 560 500 502 q 549 443 549 330 z"},"z":{"x_min":0,"x_max":525,"ha":525,"o":"m 55 547 l 482 547 l 482 465 l 144 72 l 482 72 l 482 0 l 43 0 l 43 82 l 381 475 l 55 475 z"},"B":{"x_min":0,"x_max":686,"ha":686,"o":"m 197 348 l 197 81 l 355 81 q 435 81 473 114 q 511 147 511 215 q 511 283 473 316 q 435 348 355 348 z m 197 648 l 197 428 l 343 428 q 415 428 450 455 q 486 482 486 538 q 486 593 450 621 q 415 648 343 648 z m 98 729 l 350 729 q 463 729 524 682 q 585 635 585 549 q 585 482 554 442 q 522 403 462 393 q 535 377 575 328 q 615 278 615 204 q 615 106 549 53 q 482 0 360 0 l 98 0 z"},"K":{"x_min":0,"x_max":656,"ha":656,"o":"m 98 729 l 197 729 l 197 421 l 524 729 l 651 729 l 289 389 l 677 0 l 547 0 l 197 351 l 197 0 l 98 0 z"},"R":{"x_min":0,"x_max":695,"ha":695,"o":"m 444 342 q 476 331 506 296 q 536 261 566 199 l 666 0 l 560 0 l 467 187 q 431 260 397 284 q 363 308 304 308 l 197 308 l 197 0 l 98 0 l 98 729 l 321 729 q 446 729 507 677 q 569 625 569 519 q 569 450 537 405 q 505 359 444 342 z m 197 648 l 197 389 l 321 389 q 392 389 428 422 q 465 455 465 519 q 465 583 428 615 q 392 648 321 648 z"},"T":{"x_min":0,"x_max":611,"ha":611,"o":"m -3 729 l 614 729 l 614 646 l 355 646 l 355 0 l 256 0 l 256 646 l -3 646 z"},"P":{"x_min":0,"x_max":603,"ha":603,"o":"m 197 648 l 197 374 l 321 374 q 390 374 427 410 q 465 445 465 511 q 465 577 427 612 q 390 648 321 648 z m 98 729 l 321 729 q 443 729 506 674 q 569 618 569 511 q 569 403 506 348 q 443 293 321 293 l 197 293 l 197 0 l 98 0 z"},"|":{"x_min":0,"x_max":337,"ha":337,"o":"m 210 764 l 210 -236 l 127 -236 l 127 764 z"},"t":{"x_min":0,"x_max":392,"ha":392,"o":"m 183 702 l 183 547 l 368 547 l 368 477 l 183 477 l 183 180 q 183 113 201 94 q 220 75 276 75 l 368 75 l 368 0 l 276 0 q 172 0 132 39 q 93 78 93 180 l 93 477 l 27 477 l 27 547 l 93 547 l 93 702 z"},"M":{"x_min":0,"x_max":863,"ha":863,"o":"m 98 729 l 245 729 l 431 233 l 618 729 l 765 729 l 765 0 l 669 0 l 669 640 l 481 140 l 382 140 l 194 640 l 194 0 l 98 0 z"},"g":{"x_min":0,"x_max":635,"ha":635,"o":"m 454 280 q 454 377 414 431 q 374 485 301 485 q 229 485 188 431 q 148 377 148 280 q 148 183 188 129 q 229 75 301 75 q 374 75 414 129 q 454 183 454 280 z m 544 68 q 544 -72 482 -140 q 420 -208 292 -208 q 245 -208 203 -201 q 161 -194 121 -179 l 121 -92 q 161 -113 199 -124 q 238 -134 278 -134 q 366 -134 410 -88 q 454 -42 454 52 l 454 96 q 426 48 383 24 q 339 0 279 0 q 178 0 117 77 q 55 153 55 280 q 55 407 117 483 q 178 560 279 560 q 339 560 383 536 q 426 512 454 464 l 454 547 l 544 547 z"},"j":{"x_min":0,"x_max":278,"ha":278,"o":"m 94 547 l 184 547 l 184 -10 q 184 -114 144 -161 q 104 -208 16 -208 l -18 -208 l -18 -132 l 6 -132 q 57 -132 76 -108 q 94 -84 94 -10 z m 94 760 l 184 760 l 184 646 l 94 646 z"},"i":{"x_min":0,"x_max":278,"ha":278,"o":"m 94 547 l 184 547 l 184 0 l 94 0 z m 94 760 l 184 760 l 184 646 l 94 646 z"},"y":{"x_min":0,"x_max":592,"ha":592,"o":"m 322 -51 q 284 -148 248 -178 q 211 -208 151 -208 l 79 -208 l 79 -133 l 132 -133 q 169 -133 189 -115 q 210 -98 235 -32 l 251 9 l 30 547 l 125 547 l 296 119 l 467 547 l 562 547 z"},"@":{"x_min":0,"x_max":1000,"ha":1000,"o":"m 372 262 q 372 192 407 153 q 441 113 502 113 q 562 113 596 153 q 631 193 631 262 q 631 331 596 371 q 561 411 501 411 q 442 411 407 371 q 372 331 372 262 z m 638 116 q 609 79 571 61 q 533 43 483 43 q 399 43 346 104 q 294 165 294 262 q 294 360 347 421 q 399 482 483 482 q 533 482 571 464 q 609 445 638 408 l 638 472 l 708 472 l 708 113 q 779 124 820 178 q 860 232 860 319 q 860 371 844 417 q 829 463 798 502 q 747 566 674 600 q 601 634 515 634 q 455 634 400 618 q 345 602 298 571 q 221 521 178 440 q 135 359 135 265 q 135 188 163 120 q 191 52 244 0 q 295 -51 363 -77 q 430 -104 507 -104 q 570 -104 631 -83 q 691 -62 742 -22 l 786 -76 q 725 -124 653 -149 q 581 -174 507 -174 q 417 -174 336 -142 q 256 -110 194 -49 q 131 12 99 93 q 66 173 66 265 q 66 354 99 435 q 132 515 194 576 q 257 638 339 671 q 422 704 514 704 q 618 704 706 662 q 795 619 855 541 q 892 493 911 437 q 930 381 930 321 q 930 192 853 118 q 775 44 638 41 z"},".":{"x_min":0,"x_max":318,"ha":318,"o":"m 107 124 l 210 124 l 210 0 l 107 0 z"},"p":{"x_min":0,"x_max":635,"ha":635,"o":"m 181 82 l 181 -208 l 91 -208 l 91 547 l 181 547 l 181 464 q 209 513 253 536 q 296 560 356 560 q 456 560 518 481 q 580 402 580 273 q 580 144 518 65 q 456 -14 356 -14 q 296 -14 253 10 q 209 33 181 82 z m 487 273 q 487 372 446 428 q 405 485 334 485 q 263 485 222 428 q 181 372 181 273 q 181 174 222 117 q 263 61 334 61 q 405 61 446 117 q 487 174 487 273 z"},"X":{"x_min":0,"x_max":685,"ha":685,"o":"m 63 729 l 169 729 l 350 458 l 532 729 l 638 729 l 404 379 l 654 0 l 548 0 l 343 310 l 136 0 l 30 0 l 290 389 z"},"*":{"x_min":0,"x_max":500,"ha":500,"o":"m 470 609 l 295 514 l 470 419 l 442 371 l 278 470 l 278 286 l 222 286 l 222 470 l 58 371 l 30 419 l 205 514 l 30 609 l 58 657 l 222 558 l 222 742 l 278 742 l 278 558 l 442 657 z"},"Y":{"x_min":0,"x_max":611,"ha":611,"o":"m -2 729 l 104 729 l 306 429 l 507 729 l 613 729 l 355 347 l 355 0 l 256 0 l 256 347 z"},"c":{"x_min":0,"x_max":550,"ha":550,"o":"m 488 526 l 488 442 q 450 463 411 473 q 373 484 334 484 q 247 484 198 428 q 150 373 150 273 q 150 173 198 117 q 247 62 334 62 q 373 62 411 73 q 450 83 488 104 l 488 21 q 450 3 410 -5 q 370 -14 324 -14 q 201 -14 128 63 q 55 141 55 273 q 55 407 129 483 q 202 560 330 560 q 372 560 411 552 q 451 543 488 526 z"},"!":{"x_min":0,"x_max":401,"ha":401,"o":"m 151 124 l 250 124 l 250 0 l 151 0 z m 151 729 l 250 729 l 250 409 l 240 235 l 161 235 l 151 409 z"},"/":{"x_min":0,"x_max":337,"ha":337,"o":"m 254 729 l 337 729 l 83 -93 l 0 -93 z"},"[":{"x_min":0,"x_max":390,"ha":390,"o":"m 86 760 l 293 760 l 293 690 l 176 690 l 176 -62 l 293 -62 l 293 -132 l 86 -132 z"},"6":{"x_min":0,"x_max":636,"ha":636,"o":"m 330 404 q 264 404 225 358 q 186 313 186 234 q 186 155 225 110 q 264 64 330 64 q 396 64 435 110 q 474 155 474 234 q 474 313 435 358 q 396 404 330 404 z m 526 713 l 526 623 q 489 641 451 650 q 413 659 376 659 q 278 659 227 593 q 175 527 168 394 q 197 437 240 459 q 284 482 336 482 q 446 482 510 415 q 573 349 573 234 q 573 122 507 54 q 440 -14 330 -14 q 204 -14 137 83 q 70 180 70 364 q 70 537 152 639 q 234 742 372 742 q 409 742 447 735 q 485 728 526 713 z"},"r":{"x_min":0,"x_max":411,"ha":411,"o":"m 411 463 q 396 472 378 476 q 360 480 339 480 q 263 480 222 430 q 181 381 181 288 l 181 0 l 91 0 l 91 547 l 181 547 l 181 462 q 209 512 255 536 q 300 560 365 560 q 375 560 386 559 q 397 558 411 555 z"},"2":{"x_min":0,"x_max":636,"ha":636,"o":"m 192 83 l 536 83 l 536 0 l 73 0 l 73 83 q 129 141 226 239 q 323 337 348 365 q 396 418 414 455 q 433 492 433 528 q 433 586 392 623 q 352 659 286 659 q 240 659 188 643 q 137 627 78 594 l 78 694 q 138 718 189 730 q 241 742 284 742 q 397 742 465 686 q 532 629 532 534 q 532 489 515 449 q 499 409 454 354 q 442 340 376 272 q 311 205 192 83 z"},"{":{"x_min":0,"x_max":636,"ha":636,"o":"m 511 -93 l 511 -163 l 481 -163 q 359 -163 318 -127 q 277 -91 277 17 l 277 134 q 277 208 250 236 q 224 264 155 264 l 125 264 l 125 334 l 155 334 q 225 334 251 362 q 277 390 277 463 l 277 580 q 277 688 318 724 q 359 760 481 760 l 511 760 l 511 690 l 478 690 q 409 690 388 668 q 367 647 367 578 l 367 457 q 367 380 345 346 q 323 311 269 299 q 323 286 345 251 q 367 216 367 140 l 367 19 q 367 -50 388 -71 q 409 -93 478 -93 z"},"9":{"x_min":0,"x_max":636,"ha":636,"o":"m 110 15 l 110 105 q 147 87 185 78 q 223 69 260 69 q 357 69 409 135 q 460 200 468 334 q 439 292 396 270 q 353 247 300 247 q 190 247 127 313 q 63 379 63 494 q 63 606 129 674 q 196 742 306 742 q 433 742 499 645 q 566 548 566 364 q 566 191 484 89 q 402 -14 264 -14 q 227 -14 189 -7 q 151 0 110 15 z m 306 324 q 373 324 411 370 q 450 415 450 494 q 450 573 411 618 q 373 664 306 664 q 240 664 201 618 q 162 573 162 494 q 162 415 201 370 q 240 324 306 324 z"}," ":{"x_min":0,"x_max":318,"ha":318,"o":""},"I":{"x_min":0,"x_max":295,"ha":295,"o":"m 98 729 l 197 729 l 197 0 l 98 0 z"},"H":{"x_min":0,"x_max":752,"ha":752,"o":"m 98 729 l 197 729 l 197 430 l 555 430 l 555 729 l 654 729 l 654 0 l 555 0 l 555 347 l 197 347 l 197 0 l 98 0 z"},"4":{"x_min":0,"x_max":636,"ha":636,"o":"m 378 643 l 129 254 l 378 254 z m 352 729 l 476 729 l 476 254 l 580 254 l 580 172 l 476 172 l 476 0 l 378 0 l 378 172 l 49 172 l 49 267 z"},"~":{"x_min":0,"x_max":838,"ha":838,"o":"m 732 399 l 732 312 q 681 273 637 257 q 593 240 546 240 q 492 240 421 269 q 416 271 413 272 q 410 273 402 276 q 327 306 281 306 q 238 306 196 287 q 154 269 106 228 l 106 315 q 157 354 201 370 q 245 387 292 387 q 346 387 417 358 q 422 356 425 355 q 429 354 436 351 q 511 321 557 321 q 599 321 640 339 q 682 358 732 399 z"},"D":{"x_min":0,"x_max":770,"ha":770,"o":"m 197 648 l 197 81 l 316 81 q 467 81 537 149 q 607 218 607 365 q 607 512 537 580 q 467 648 316 648 z m 98 729 l 301 729 q 513 729 612 641 q 711 553 711 365 q 711 177 611 88 q 512 0 301 0 l 98 0 z"},"^":{"x_min":0,"x_max":838,"ha":838,"o":"m 467 729 l 732 457 l 634 457 l 419 650 l 204 457 l 106 457 l 371 729 z"},"0":{"x_min":0,"x_max":636,"ha":636,"o":"m 318 664 q 242 664 203 589 q 165 514 165 364 q 165 214 203 139 q 242 64 318 64 q 395 64 433 139 q 471 214 471 364 q 471 514 433 589 q 395 664 318 664 z m 318 742 q 440 742 505 645 q 570 548 570 364 q 570 180 505 83 q 440 -14 318 -14 q 195 -14 131 83 q 66 180 66 364 q 66 548 131 645 q 195 742 318 742 z"},"F":{"x_min":0,"x_max":575,"ha":575,"o":"m 98 729 l 517 729 l 517 646 l 197 646 l 197 431 l 486 431 l 486 348 l 197 348 l 197 0 l 98 0 z"},"`":{"x_min":0,"x_max":500,"ha":500,"o":"m 179 800 l 317 617 l 242 617 l 83 800 z"},"k":{"x_min":0,"x_max":579,"ha":579,"o":"m 91 760 l 181 760 l 181 311 l 449 547 l 564 547 l 274 291 l 576 0 l 459 0 l 181 267 l 181 0 l 91 0 z"},"u":{"x_min":0,"x_max":634,"ha":634,"o":"m 85 216 l 85 547 l 175 547 l 175 219 q 175 142 205 103 q 235 64 296 64 q 369 64 411 110 q 453 157 453 237 l 453 547 l 543 547 l 543 0 l 453 0 l 453 84 q 420 34 377 10 q 334 -14 277 -14 q 183 -14 134 44 q 85 103 85 216 z m 311 560 z"},"]":{"x_min":0,"x_max":390,"ha":390,"o":"m 304 760 l 304 -132 l 97 -132 l 97 -62 l 214 -62 l 214 690 l 97 690 l 97 760 z"},"U":{"x_min":0,"x_max":732,"ha":732,"o":"m 87 729 l 186 729 l 186 286 q 186 169 229 117 q 271 66 366 66 q 461 66 503 117 q 546 169 546 286 l 546 729 l 645 729 l 645 274 q 645 131 574 59 q 504 -14 366 -14 q 228 -14 157 59 q 87 131 87 274 z"},"o":{"x_min":0,"x_max":612,"ha":612,"o":"m 306 484 q 234 484 192 427 q 150 371 150 273 q 150 175 192 118 q 233 62 306 62 q 378 62 420 119 q 462 175 462 273 q 462 370 420 427 q 378 484 306 484 z m 306 560 q 423 560 490 484 q 557 408 557 273 q 557 139 490 62 q 423 -14 306 -14 q 188 -14 122 62 q 55 139 55 273 q 55 408 122 484 q 188 560 306 560 z"},"N":{"x_min":0,"x_max":748,"ha":748,"o":"m 98 729 l 231 729 l 554 119 l 554 729 l 650 729 l 650 0 l 517 0 l 194 610 l 194 0 l 98 0 z"},"+":{"x_min":0,"x_max":838,"ha":838,"o":"m 460 627 l 460 355 l 732 355 l 732 272 l 460 272 l 460 0 l 378 0 l 378 272 l 106 272 l 106 355 l 378 355 l 378 627 z"},"G":{"x_min":0,"x_max":775,"ha":775,"o":"m 595 104 l 595 300 l 434 300 l 434 381 l 693 381 l 693 68 q 636 27 567 7 q 498 -14 420 -14 q 249 -14 153 86 q 56 186 56 364 q 56 542 153 642 q 249 742 420 742 q 491 742 555 725 q 620 707 674 673 l 674 568 q 619 614 558 638 q 496 661 428 661 q 294 661 227 586 q 160 512 160 364 q 160 216 227 142 q 294 67 428 67 q 480 67 521 76 q 562 85 595 104 z"},"q":{"x_min":0,"x_max":635,"ha":635,"o":"m 148 273 q 148 174 189 117 q 229 61 301 61 q 372 61 413 117 q 454 174 454 273 q 454 372 413 428 q 372 485 301 485 q 229 485 189 428 q 148 372 148 273 z m 454 82 q 426 33 383 10 q 339 -14 279 -14 q 180 -14 117 65 q 55 144 55 273 q 55 402 117 481 q 180 560 279 560 q 339 560 383 536 q 426 513 454 464 l 454 547 l 544 547 l 544 -208 l 454 -208 z"},"d":{"x_min":0,"x_max":635,"ha":635,"o":"m 454 464 l 454 760 l 544 760 l 544 0 l 454 0 l 454 82 q 426 33 383 10 q 339 -14 279 -14 q 180 -14 117 65 q 55 144 55 273 q 55 402 117 481 q 180 560 279 560 q 339 560 383 536 q 426 513 454 464 z m 148 273 q 148 174 189 117 q 229 61 301 61 q 372 61 413 117 q 454 174 454 273 q 454 372 413 428 q 372 485 301 485 q 229 485 189 428 q 148 372 148 273 z"},"1":{"x_min":0,"x_max":636,"ha":636,"o":"m 124 83 l 285 83 l 285 639 l 110 604 l 110 694 l 284 729 l 383 729 l 383 83 l 544 83 l 544 0 l 124 0 z"},"5":{"x_min":0,"x_max":636,"ha":636,"o":"m 108 729 l 495 729 l 495 646 l 198 646 l 198 467 q 220 475 241 478 q 263 482 284 482 q 406 482 478 415 q 549 348 549 234 q 549 116 476 51 q 402 -14 269 -14 q 223 -14 176 -6 q 128 1 77 17 l 77 116 q 121 92 168 81 q 215 69 267 69 q 352 69 401 113 q 450 158 450 234 q 450 310 401 354 q 352 399 267 399 q 228 399 188 390 q 149 381 108 363 z"}}}
